#N canvas 125 59 609 644 12;
#X obj 348 82 loadbang;
#X text 507 131 hits;
#X text 497 390 velocity;
#X msg 349 110 60;
#X obj 20 20 cnv 15 140 270 empty empty D\$1 20 12 0 12 -204800 -66577
0;
#X obj 51 122 bng 15 250 50 0 empty \$0-ui-8 empty 17 7 0 10 -262144
-1 -1;
#X floatatom 50 47 5 0 127 0 HIT #0-ui-1 #0-en-1;
#X floatatom 50 72 5 0 127 0 LEN #0-ui-2 #0-en-2;
#X floatatom 50 97 5 0 127 0 ROT #0-ui-3 #0-en-3;
#X floatatom 50 147 5 0 127 0 TUN #0-ui-5 #0-en-5;
#X floatatom 50 173 5 0 127 0 VEL #0-ui-6 #0-en-6;
#X floatatom 50 198 5 0 127 0 DUR #0-ui-7 #0-en-7;
#X text 504 187 length;
#X text 507 250 rotation;
#X obj 214 380 euclid;
#X floatatom 227 301 5 0 127 1 hits #0-en-1 -;
#X floatatom 240 326 5 0 127 1 rotation #0-en-3 -;
#X floatatom 253 351 5 0 127 1 length #0-en-2 -;
#X text 82 449 hit_indicator;
#X text 493 449 duration;
#X obj 419 156 s \$0-ui-1;
#X obj 419 213 s \$0-ui-2;
#X obj 419 270 s \$0-ui-3;
#X obj 419 330 s \$0-ui-5;
#X obj 419 390 s \$0-ui-6;
#X obj 419 447 s \$0-ui-7;
#X text 512 307 tune;
#X obj 85 426 s \$0-ui-8;
#X obj 419 130 ctlin \$2 \$1;
#X obj 419 187 ctlin \$3 \$1;
#X obj 419 246 ctlin \$4 \$1;
#X obj 419 303 ctlin \$5 \$1;
#X obj 419 361 ctlin \$6 \$1;
#X obj 419 417 ctlin \$7 \$1;
#X obj 100 20 track_clock;
#X text 37 320 counter;
#X obj 100 320 int 1;
#X obj 146 320 + 1;
#X obj 225 234 r reset;
#X msg 225 258 1;
#X obj 214 528 outlet;
#X connect 0 0 3 0;
#X connect 3 0 23 0;
#X connect 3 0 24 0;
#X connect 3 0 25 0;
#X connect 14 0 27 0;
#X connect 14 0 40 0;
#X connect 15 0 14 1;
#X connect 16 0 14 2;
#X connect 17 0 14 3;
#X connect 28 0 20 0;
#X connect 29 0 21 0;
#X connect 30 0 22 0;
#X connect 31 0 23 0;
#X connect 32 0 24 0;
#X connect 33 0 25 0;
#X connect 34 0 36 0;
#X connect 36 0 37 0;
#X connect 36 0 14 0;
#X connect 37 0 36 1;
#X connect 38 0 39 0;
#X connect 39 0 36 0;
#X coords 0 -1 1 1 140 270 2 20 20;
