#N canvas 190 34 717 659 12;
#X obj 152 608 metro 1 120 permin, f 20;
#X msg 152 558 tempo \$1 permin;
#X obj 688 368 bng 15 250 50 0 empty empty empty 17 7 0 10 -262144
-1 -1;
#X obj 286 376 bng 15 250 50 0 empty empty empty 17 7 0 10 -262144
-1 -1;
#X obj 319 378 bng 15 250 50 0 empty empty empty 17 7 0 10 -262144
-1 -1;
#X obj 350 377 bng 15 250 50 0 empty empty empty 17 7 0 10 -262144
-1 -1;
#X obj 384 376 bng 15 250 50 0 empty empty empty 17 7 0 10 -262144
-1 -1;
#X obj 419 378 bng 15 250 50 0 empty empty empty 17 7 0 10 -262144
-1 -1;
#X obj 452 377 bng 15 250 50 0 empty empty empty 17 7 0 10 -262144
-1 -1;
#X obj 485 378 bng 15 250 50 0 empty empty empty 17 7 0 10 -262144
-1 -1;
#X obj 519 378 bng 15 250 50 0 empty empty empty 17 7 0 10 -262144
-1 -1;
#X obj 552 381 bng 15 250 50 0 empty empty empty 17 7 0 10 -262144
-1 -1;
#X obj 585 382 bng 15 250 50 0 empty empty empty 17 7 0 10 -262144
-1 -1;
#X obj 20 70 cnv 15 50 270 empty empty empty 20 12 0 14 -204800 -66577
0;
#X obj 25 13 loadbang;
#X text 48 120 x3;
#X text 48 140 x2;
#X text 48 160 x1;
#X text 48 181 /2;
#X text 48 202 /3;
#X text 48 222 /4;
#X text 48 241 /5;
#X text 48 262 /6;
#X obj 25 79 vradio 20 1 0 12 empty empty empty 0 -8 0 10 -262144 -1
-1 4;
#X text 48 283 /7;
#X text 48 303 /8;
#X msg 25 45 4;
#X text 48 100 x4;
#X text 48 80 x5;
#X obj 286 343 select 0 1 2 3 4 5 6 7 8 9 10 11, f 48;
#X obj 619 382 bng 15 250 50 0 empty empty empty 17 7 0 10 -262144
-1 -1;
#X obj 657 382 bng 15 250 50 0 empty empty empty 17 7 0 10 -262144
-1 -1;
#X obj 26 605 outlet;
#X obj 26 322 bng 15 250 50 0 empty empty empty 17 7 0 10 -262144 -1
-1;
#X obj 108 459 r start;
#X obj 152 512 r bpm;
#X text 286 315 select clock multiplication or division from radio
group;
#X msg 286 400 1;
#X msg 319 400 1;
#X obj 286 424 / 5;
#X obj 319 424 / 4;
#X obj 351 424 / 3;
#X obj 384 424 / 2;
#X msg 419 401 1;
#X msg 452 401 2;
#X msg 485 401 3;
#X msg 519 401 4;
#X msg 552 401 5;
#X msg 585 402 6;
#X msg 619 402 7;
#X msg 657 402 8;
#X msg 351 400 1;
#X msg 384 400 1;
#X connect 0 0 33 0;
#X connect 1 0 0 0;
#X connect 3 0 37 0;
#X connect 4 0 38 0;
#X connect 5 0 51 0;
#X connect 6 0 52 0;
#X connect 7 0 43 0;
#X connect 8 0 44 0;
#X connect 9 0 45 0;
#X connect 10 0 46 0;
#X connect 11 0 47 0;
#X connect 12 0 48 0;
#X connect 14 0 26 0;
#X connect 23 0 29 0;
#X connect 26 0 23 0;
#X connect 29 0 3 0;
#X connect 29 1 4 0;
#X connect 29 2 5 0;
#X connect 29 3 6 0;
#X connect 29 4 7 0;
#X connect 29 5 8 0;
#X connect 29 6 9 0;
#X connect 29 7 10 0;
#X connect 29 8 11 0;
#X connect 29 9 12 0;
#X connect 29 10 30 0;
#X connect 29 11 31 0;
#X connect 29 12 2 0;
#X connect 30 0 49 0;
#X connect 31 0 50 0;
#X connect 33 0 32 0;
#X connect 34 0 0 0;
#X connect 35 0 1 0;
#X connect 37 0 39 0;
#X connect 38 0 40 0;
#X connect 39 0 0 1;
#X connect 40 0 0 1;
#X connect 41 0 0 1;
#X connect 42 0 0 1;
#X connect 43 0 0 1;
#X connect 44 0 0 1;
#X connect 45 0 0 1;
#X connect 46 0 0 1;
#X connect 47 0 0 1;
#X connect 48 0 0 1;
#X connect 49 0 0 1;
#X connect 50 0 0 1;
#X connect 51 0 41 0;
#X connect 52 0 42 0;
#X coords 0 -1 1 1 50 270 2 20 70;
