#N canvas 34 329 621 388 12;
#X obj 100 90 cnv 15 240 80 empty empty empty 20 12 0 11 -204786 -66577
0;
#X obj 194 28 loadbang;
#X floatatom 194 138 0 0 0 1 - - -;
#X obj 107 142 tgl 15 0 empty empty empty 17 7 0 10 -262144 -1 -1 0
1;
#X obj 319 97 bng 15 250 50 0 empty bpm empty 17 7 0 10 -262144 -1
-1;
#X obj 275 10 ctlin 36;
#X obj 275 61 i;
#X obj 81 37 ctlin 40;
#X text 293 142 reset;
#X obj 273 142 bng 15 250 50 0 empty empty empty 17 7 0 10 -262144
-1 -1;
#X text 126 140 start;
#X obj 275 36 expr pow(500 \, ($f1 - 0.) / 127.);
#X text 309 61 midi log scaling func (max=500);
#X obj 111 111 hsl 128 15 0.01 1 1 0 empty empty volume -2 -8 0 10
-262144 -1 -1 0 1;
#X obj 17 151 s volume;
#X obj 107 188 s start;
#X obj 194 189 s bpm;
#X obj 273 189 s reset;
#X obj 25 38 t b b;
#X text 222 141 bpm;
#X msg 194 60 120;
#X connect 1 0 20 0;
#X connect 2 0 16 0;
#X connect 3 0 15 0;
#X connect 5 0 11 0;
#X connect 6 0 2 0;
#X connect 7 0 3 0;
#X connect 9 0 17 0;
#X connect 9 0 18 0;
#X connect 11 0 6 0;
#X connect 13 0 14 0;
#X connect 18 0 3 0;
#X connect 18 1 3 0;
#X connect 20 0 2 0;
#X coords 0 -1 1 1 240 80 1 100 90;
