#N canvas 509 215 450 300 12;
#N canvas 657 96 450 300 vco 0;
#X obj 90 240 outlet~;
#X obj 90 110 osc~ 440;
#X obj 90 170 *~ 0.15;
#X obj 60 30 cnv 15 216 58 empty empty empty 20 12 0 14 #e0e0e0 #404040
0;
#X obj 90 60 hsl 128 15 220 660 0 0 empty empty empty -2 -8 0 10 #fcfcfc
#000000 #000000 2100 1;
#X connect 1 0 2 0;
#X connect 2 0 0 0;
#X connect 4 0 1 0;
#X coords 0 -1 1 1 151 45 1 80 41;
#X restore 80 60 pd vco;
#X obj 160 200 dac~;
#N canvas 657 96 450 300 vco 0;
#X obj 90 240 outlet~;
#X obj 90 110 osc~ 440;
#X obj 90 170 *~ 0.15;
#X obj 60 30 cnv 15 216 58 empty empty empty 20 12 0 14 #e0e0e0 #404040
0;
#X obj 90 60 hsl 128 15 220 660 0 0 empty empty empty -2 -8 0 10 #fcfcfc
#000000 #000000 0 1;
#X connect 1 0 2 0;
#X connect 2 0 0 0;
#X connect 4 0 1 0;
#X coords 0 -1 1 1 151 45 1 80 41;
#X restore 250 60 pd vco;
#X obj 165 137 +~;
#X connect 0 0 3 0;
#X connect 2 0 3 1;
#X connect 3 0 1 0;
#X connect 3 0 1 1;
