#N canvas 355 414 450 300 10;
#X obj 37 56 osc~ 440;
#X obj 39 239 dac~;
#X obj 40 131 *~ 0.25;
#X msg 211 71 \; pd dsp 1;
#X obj 211 28 loadbang;
#X connect 0 0 2 0;
#X connect 2 0 1 0;
#X connect 2 0 1 1;
#X connect 4 0 3 0;
