#N canvas 28 402 1338 418 12;
#X obj 20 80 cnv 15 1300 320 empty empty tracks 20 12 0 12 -228856
-66577 0;
#X obj 34 19 inlet;
#X obj 34 103 track BD 10 35 36 20 23 24 96 0 1 2 3 4 5 6 7 8 9;
#X obj 149 103 track SD 10 40 38 25 28 29 97 10 21 22 23 24 25 26 27
28 29;
#X obj 265 102 track LT 10 41 43 46 47 48 102 30 31 32 33 34 35 36
37 18 39;
#X obj 34 45 t f f f f f f f f f f f, f 166;
#X obj 381 103 track MT 10 45 47 49 50 51 103 30 31 32 33 34 35 36
37 18 39;
#X obj 497 103 track HT 10 48 50 52 53 54 104 40 41 42 43 44 45 46
47 48 49;
#X obj 614 103 track RS 10 56 37 55 56 57 105 50 51 52 53 54 55 56
57 58 59;
#X obj 729 103 track HC 10 54 39 58 59 60 106 60 61 62 63 64 65 66
67 68 69;
#X obj 845 103 track CH 10 44 42 61 62 63 107 70 71 72 73 74 75 76
77 78 79;
#X obj 960 103 track OH 10 58 46 80 81 82 108 80 81 82 83 84 85 86
87 88 89;
#X obj 1077 102 track CC 10 61 49 83 84 85 109 90 91 92 93 94 95 96
97 98 99;
#X obj 1192 103 track RC 10 63 51 86 87 88 110 100 101 102 103 104
105 106 107 108 109;
#X connect 1 0 5 0;
#X connect 5 0 2 0;
#X connect 5 1 3 0;
#X connect 5 2 4 0;
#X connect 5 3 6 0;
#X connect 5 4 7 0;
#X connect 5 5 8 0;
#X connect 5 6 9 0;
#X connect 5 7 10 0;
#X connect 5 8 11 0;
#X connect 5 9 12 0;
#X connect 5 10 13 0;
#X coords 0 -1 1 1 1300 320 1 20 80;
