#N canvas 165 308 1036 378 12;
#X obj 20 80 cnv 15 1000 280 empty empty tracks 20 12 0 12 -228856
-66577 0;
#X obj 34 19 inlet;
#X obj 34 48 t f f f f f f f f, f 117;
#X obj 41 113 track KI 10 36 36 0 1 2 3 4 5;
#X obj 159 113 track D1 10 48 48 6 7 8 9 10 11;
#X obj 278 113 track D2 10 41 41 12 13 14 15 16 17;
#X obj 397 114 track MU 10 58 58 18 19 20 21 22 23;
#X obj 515 115 track SD 10 40 40 24 25 26 27 28 29;
#X obj 631 114 track H1 10 49 51 30 31 32 33 34 35;
#X obj 752 114 track H2 10 42 44 36 37 38 39 40 41;
#X obj 872 113 track HC 10 39 39 42 43 44 45 46 47;
#X connect 1 0 2 0;
#X connect 2 0 3 0;
#X connect 2 1 4 0;
#X connect 2 2 5 0;
#X connect 2 3 6 0;
#X connect 2 4 7 0;
#X connect 2 5 8 0;
#X connect 2 6 9 0;
#X connect 2 7 10 0;
#X coords 0 -1 1 1 1000 280 1 20 80;
