#N canvas 56 96 898 655 12;
#X obj 608 92 loadbang;
#X text 288 259 hits;
#X text 679 255 velocity;
#X msg 651 157 60;
#X obj 20 20 cnv 15 110 230 empty empty \$1 20 12 0 12 -204800 -66577
0;
#X obj 51 122 bng 15 250 50 0 empty \$0-ui-11 empty 17 7 0 10 -262144
-1 -1;
#X floatatom 50 47 5 0 127 0 HIT #0-ui-1 #0-en-1;
#X floatatom 50 72 5 0 127 0 LEN #0-ui-2 #0-en-2;
#X floatatom 50 97 5 0 127 0 ROT #0-ui-3 #0-en-3;
#X floatatom 50 170 5 0 127 0 VEL #0-ui-5 #0-en-5;
#X floatatom 50 195 5 0 127 0 DUR #0-ui-6 #0-en-6;
#X obj 51 146 hradio 15 1 0 2 \$0-en-4 \$0-ui-4 empty 0 -8 0 10 -262144
-1 -1 0;
#X text 573 258 sounds;
#X msg 608 158 0;
#X text 384 256 length;
#X text 478 258 rotation;
#X obj 214 557 makenote;
#X obj 214 531 f;
#X obj 214 111 inlet;
#X floatatom 271 505 0 0 127 1 vel #0-en-5 -;
#X floatatom 272 530 0 0 127 1 duration #0-en-6 -;
#X obj 214 380 euclid;
#X floatatom 227 301 5 0 127 1 hits #0-en-1 -;
#X floatatom 240 326 5 0 127 1 rotation #0-en-3 -;
#X floatatom 253 351 5 0 127 1 length #0-en-2 -;
#X text 82 449 hit_indicator;
#X text 223 130 counter;
#X text 773 257 duration;
#X obj 288 233 s \$0-ui-1;
#X obj 382 232 s \$0-ui-2;
#X obj 476 233 s \$0-ui-3;
#X obj 571 233 s \$0-ui-4;
#X obj 85 426 s \$0-ui-11;
#X obj 333 409 select 0 1;
#X obj 333 388 hradio 15 1 0 2 empty \$0-en-4 note 0 -8 0 10 -262144
-1 -1 0;
#X floatatom 232 480 5 0 0 1 note - -;
#X obj 608 116 t b b b;
#X text 23 145 SND;
#X obj 288 192 ctlin \$9 \$4;
#X obj 382 191 ctlin \$10 \$4;
#X obj 476 192 ctlin \$11 \$4;
#X obj 571 193 ctlin \$12 \$4;
#X obj 214 600 noteout \$2;
#X obj 328 438 i \$3;
#X obj 366 438 i \$4;
#X text 296 599 channel;
#X obj 669 194 ctlin \$13 \$4;
#X obj 764 195 ctlin \$14 \$4;
#X obj 669 234 s \$0-ui-5;
#X obj 765 235 s \$0-ui-6;
#X connect 0 0 36 0;
#X connect 3 0 48 0;
#X connect 3 0 49 0;
#X connect 13 0 31 0;
#X connect 16 0 42 0;
#X connect 16 1 42 1;
#X connect 17 0 16 0;
#X connect 18 0 21 0;
#X connect 19 0 16 1;
#X connect 20 0 16 2;
#X connect 21 0 17 0;
#X connect 21 0 32 0;
#X connect 22 0 21 1;
#X connect 23 0 21 2;
#X connect 24 0 21 3;
#X connect 33 0 43 0;
#X connect 33 1 44 0;
#X connect 34 0 33 0;
#X connect 35 0 17 1;
#X connect 36 0 13 0;
#X connect 36 1 3 0;
#X connect 38 0 28 0;
#X connect 39 0 29 0;
#X connect 40 0 30 0;
#X connect 41 0 31 0;
#X connect 43 0 35 0;
#X connect 44 0 35 0;
#X connect 46 0 48 0;
#X connect 47 0 49 0;
#X coords 0 -1 1 1 110 230 2 20 20;
