#N canvas 643 79 579 257 12;
#X obj 100 90 cnv 15 240 60 empty empty transport 20 12 0 11 -204786
-66577 0;
#X obj 194 28 loadbang;
#X floatatom 194 120 0 0 0 1 - - -;
#X obj 107 124 tgl 15 0 empty empty empty 17 7 0 10 -262144 -1 -1 0
1;
#X obj 275 10 ctlin 36;
#X obj 275 61 i;
#X obj 107 28 ctlin 40;
#X text 293 124 reset;
#X obj 273 124 bng 15 250 50 0 empty empty empty 17 7 0 10 -262144
-1 -1;
#X text 126 122 start;
#X text 222 123 bpm;
#X msg 194 60 120;
#X obj 107 188 s start;
#X obj 194 189 s bpm;
#X obj 273 189 s reset;
#X obj 275 36 expr pow(500 \, ($f1 - 0.) / 127.);
#X text 309 61 midi log scaling func (max=500);
#X obj 54 28 t b b;
#X connect 1 0 11 0;
#X connect 2 0 13 0;
#X connect 3 0 12 0;
#X connect 4 0 15 0;
#X connect 5 0 2 0;
#X connect 6 0 3 0;
#X connect 8 0 14 0;
#X connect 8 0 17 0;
#X connect 11 0 2 0;
#X connect 15 0 5 0;
#X connect 17 0 3 0;
#X connect 17 1 3 0;
#X coords 0 -1 1 1 240 60 1 100 90;
