#N canvas 349 368 799 439 12;
#X obj 136 9 tgl 15 0 empty empty empty 17 7 0 10 -262144 -1 -1 1 1
;
#X obj 161 241 makenote;
#X obj 161 181 f;
#X floatatom 217 186 5 0 127 0 - - -;
#X floatatom 227 218 5 0 0 0 - - -;
#X floatatom 227 32 5 0 127 0 - - -;
#X obj 136 34 metro 300;
#X msg 227 61 36;
#X msg 263 60 48;
#X msg 300 60 41;
#X msg 339 59 58;
#X msg 375 58 40;
#X msg 451 58 42;
#X msg 488 58 39;
#X msg 409 84 51;
#X msg 450 88 44;
#X msg 412 58 49;
#X floatatom 196 7 5 0 0 0 - - -;
#X floatatom 247 248 5 1 16 0 - - -;
#X obj 160 273 noteout;
#X connect 0 0 6 0;
#X connect 1 0 19 0;
#X connect 1 1 19 1;
#X connect 2 0 1 0;
#X connect 3 0 1 1;
#X connect 4 0 1 2;
#X connect 5 0 2 1;
#X connect 6 0 2 0;
#X connect 7 0 2 1;
#X connect 8 0 2 1;
#X connect 9 0 2 1;
#X connect 10 0 2 1;
#X connect 11 0 2 1;
#X connect 12 0 2 1;
#X connect 14 0 2 1;
#X connect 15 0 2 1;
#X connect 16 0 2 1;
#X connect 17 0 6 1;
#X connect 18 0 19 2;
