#N canvas 666 203 450 300 12;
#X obj 160 120 sine~;
#X obj 180 210 dac~;
#X obj 20 30 hsl 128 15 0 1 0 0 empty empty empty -2 -8 0 10 #fcfcfc
#000000 #000000 4650 1;
#X obj 210 30 hsl 128 15 20 1000 0 0 empty empty empty -2 -8 0 10 #fcfcfc
#000000 #000000 2350 1;
#X msg 20 60 gain \$1;
#X msg 210 60 frequency \$1;
#X connect 0 1 1 1;
#X connect 0 1 1 0;
#X connect 2 0 4 0;
#X connect 3 0 5 0;
#X connect 4 0 0 0;
#X connect 5 0 0 0;
