#N canvas 668 150 450 425 12;
#X obj 10 100 osc~;
#X obj 10 380 dac~;
#X obj 230 307 tgl 15 0 empty empty empty 17 7 0 10 #fcfcfc #000000
#000000 1 1;
#X obj 230 331 metro 100;
#X obj 230 360 tabwrite~ graph;
#N canvas 0 22 450 300 (subpatch) 0;
#X array graph 100 float 3 black black;
#A 0 0 0 0 0 0 0 0 0 0 0 0 0 0 0 0 0 0 0 0 0 0 0 0 0 0 0 0 0 0 0 0
0 0 0 0 0 0 0 0 0 0 0 0 0 0 0 0 0 0 0 0 0 0 0 0 0 0 0 0 0 0 0 0 0 0
0 0 0 0 0 0 0 0 0 0 0 0 0 0 0 0 0 0 0 0 0 0 0 0 0 0 0 0 0 0 0 0 0 0
0;
#X coords 0 1 100 -1 200 140 1;
#X restore 230 10 graph;
#X obj 90 100 phasor~;
#X obj 10 330 +~;
#X obj 10 280 *~;
#X obj 90 280 *~;
#X obj 110 190 hsl 128 15 0 1 0 0 empty empty empty -2 -8 0 10 #fcfcfc
#000000 #000000 0 1;
#X obj 110 240 - 1;
#X floatatom 10 60 5 0 0 0 - - -, f 5;
#X floatatom 90 60 5 0 0 0 - - -, f 5;
#X connect 0 0 8 0;
#X connect 2 0 3 0;
#X connect 3 0 4 0;
#X connect 6 0 9 0;
#X connect 7 0 1 0;
#X connect 7 0 1 1;
#X connect 7 0 4 0;
#X connect 8 0 7 0;
#X connect 9 0 7 0;
#X connect 10 0 8 1;
#X connect 10 0 11 0;
#X connect 11 0 9 1;
#X connect 12 0 0 0;
#X connect 13 0 6 0;
