#N canvas 668 150 450 425 12;
#X obj 10 10 hsl 128 15 0 127 0 0 empty empty empty -2 -8 0 10 #fcfcfc
#000000 #000000 4900 1;
#X obj 10 40 mtof;
#X obj 10 100 osc~;
#X obj 10 380 dac~;
#X obj 230 307 tgl 15 0 empty empty empty 17 7 0 10 #fcfcfc #000000
#000000 1 1;
#X obj 230 331 metro 100;
#X obj 230 360 tabwrite~ graph;
#N canvas 0 0 450 300 (subpatch) 0;
#X array graph 100 float 3 black black;
#A 0 0 0 0 0 0 0 0 0 0 0 0 0 0 0 0 0 0 0 0 0 0 0 0 0 0 0 0 0 0 0 0
0 0 0 0 0 0 0 0 0 0 0 0 0 0 0 0 0 0 0 0 0 0 0 0 0 0 0 0 0 0 0 0 0 0
0 0 0 0 0 0 0 0 0 0 0 0 0 0 0 0 0 0 0 0 0 0 0 0 0 0 0 0 0 0 0 0 0 0
0;
#X coords 0 1 100 -1 200 140 1;
#X restore 230 10 graph;
#X obj 90 100 phasor~;
#X obj 10 330 +~;
#X obj 10 280 *~;
#X obj 90 280 *~;
#X obj 110 190 hsl 128 15 0 1 0 0 empty empty empty -2 -8 0 10 #fcfcfc
#000000 #000000 0 1;
#X obj 110 240 - 1;
#X connect 0 0 1 0;
#X connect 1 0 2 0;
#X connect 1 0 8 0;
#X connect 2 0 10 0;
#X connect 4 0 5 0;
#X connect 5 0 6 0;
#X connect 8 0 11 0;
#X connect 9 0 3 0;
#X connect 9 0 3 1;
#X connect 9 0 6 0;
#X connect 10 0 9 0;
#X connect 11 0 9 0;
#X connect 12 0 10 1;
#X connect 12 0 13 0;
#X connect 13 0 11 1;
