#N canvas 229 50 650 372 12;
#X obj 20 80 cnv 15 600 260 empty empty tracks 20 12 0 12 -228856 -66577
0;
#X obj 30 14 inlet;
#X obj 30 44 t f f f f f f, f 70;
#X obj 30 104 track 1 0 1 2 3 4 5;
#X obj 126 105 track 2 6 7 8 9 10 11;
#X obj 222 105 track 3 12 13 14 15 16 17;
#X obj 318 105 track 4 18 19 20 21 22 23;
#X obj 414 105 track 5 24 25 26 27 28 29;
#X obj 509 105 track 6 30 31 32 33 34 35;
#X connect 1 0 2 0;
#X connect 2 0 3 0;
#X connect 2 1 4 0;
#X connect 2 2 5 0;
#X connect 2 3 6 0;
#X connect 2 4 7 0;
#X connect 2 5 8 0;
#X coords 0 -1 1 1 600 260 1 20 80;
