#N canvas 70 83 1241 664 12;
#X obj 608 92 loadbang;
#X text 288 259 hits;
#X text 770 254 velocity;
#X msg 651 157 60;
#X text 668 253 tune;
#X obj 20 20 cnv 15 110 290 empty empty \$1 20 12 0 12 -204800 -66577
0;
#X obj 51 122 bng 15 250 50 0 empty \$0-ui-11 empty 17 7 0 10 -262144
-1 -1;
#X floatatom 50 47 5 0 127 0 HIT #0-ui-1 #0-en-1;
#X floatatom 50 72 5 0 127 0 LEN #0-ui-2 #0-en-2;
#X floatatom 50 97 5 0 127 0 ROT #0-ui-3 #0-en-3;
#X floatatom 50 172 5 0 127 0 TUN #0-ui-5 #0-en-5;
#X floatatom 50 198 5 0 127 0 VEL #0-ui-6 #0-en-6;
#X floatatom 50 223 5 0 127 0 DUR #0-ui-7 #0-en-7;
#X obj 51 146 hradio 15 1 0 2 \$0-en-4 \$0-ui-4 empty 0 -8 0 10 -262144
-1 -1 0;
#X text 573 258 sounds;
#X msg 608 158 0;
#X text 384 256 length;
#X text 478 258 rotation;
#X obj 214 557 makenote;
#X obj 214 531 f;
#X obj 214 111 inlet;
#X floatatom 845 330 0 0 127 0 tune #0-en-5 -;
#X floatatom 271 505 0 0 127 1 vel #0-en-5 -;
#X floatatom 272 530 0 0 127 1 duration #0-en-6 -;
#X obj 214 380 euclid;
#X floatatom 227 301 5 0 127 1 hits #0-en-1 -;
#X floatatom 240 326 5 0 127 1 rotation #0-en-3 -;
#X floatatom 253 351 5 0 127 1 length #0-en-2 -;
#X text 82 449 hit_indicator;
#X text 223 130 counter;
#X floatatom 50 249 5 0 127 0 DCY #0-ui-8 #0-en-8;
#X floatatom 50 275 5 0 127 0 CTL #0-ui-9 #0-en-9;
#X obj 100 50 vsl 16 240 0 127 0 0 \$0-en-10 \$0-ui-10 vol 0 -9 0 10
-262144 -1 -1 0 1;
#X text 864 256 duration;
#X text 961 258 decay;
#X text 1055 259 ctrl;
#X text 1154 261 level;
#X obj 288 233 s \$0-ui-1;
#X obj 382 232 s \$0-ui-2;
#X obj 476 233 s \$0-ui-3;
#X obj 571 233 s \$0-ui-4;
#X obj 664 232 s \$0-ui-5;
#X obj 760 233 s \$0-ui-6;
#X obj 856 234 s \$0-ui-7;
#X obj 953 236 s \$0-ui-8;
#X obj 1146 239 s \$0-ui-10;
#X obj 1047 237 s \$0-ui-9;
#X obj 85 426 s \$0-ui-11;
#X floatatom 845 386 0 0 127 0 decay #0-en-8 -;
#X floatatom 846 504 0 0 127 0 ctrl #0-en-9 -;
#X floatatom 845 445 0 0 127 0 level #0-en-10 -;
#X obj 333 409 select 0 1;
#X obj 333 388 hradio 15 1 0 2 empty \$0-en-4 note 0 -8 0 10 -262144
-1 -1 0;
#X floatatom 232 480 5 0 0 1 note - -;
#X obj 608 116 t b b b;
#X text 23 145 SND;
#X obj 288 192 ctlin \$9 \$4;
#X obj 382 191 ctlin \$10 \$4;
#X obj 476 192 ctlin \$11 \$4;
#X obj 571 193 ctlin \$12 \$4;
#X obj 664 193 ctlin \$13 \$4;
#X obj 760 193 ctlin \$14 \$4;
#X obj 855 194 ctlin \$15 \$4;
#X obj 953 194 ctlin \$16 \$4;
#X obj 1047 195 ctlin \$17 \$4;
#X obj 1146 193 ctlin \$18 \$4;
#X obj 214 600 noteout \$2;
#X obj 328 438 i \$3;
#X obj 366 438 i \$4;
#X text 296 599 channel;
#X obj 847 356 ctlout \$5 \$2;
#X obj 846 529 ctlout \$8 \$2;
#X obj 846 471 ctlout \$7 \$2;
#X obj 845 413 ctlout \$6 \$2;
#X connect 0 0 54 0;
#X connect 3 0 41 0;
#X connect 3 0 42 0;
#X connect 3 0 43 0;
#X connect 3 0 44 0;
#X connect 3 0 46 0;
#X connect 15 0 40 0;
#X connect 18 0 66 0;
#X connect 18 1 66 1;
#X connect 19 0 18 0;
#X connect 20 0 24 0;
#X connect 21 0 70 0;
#X connect 22 0 18 1;
#X connect 23 0 18 2;
#X connect 24 0 19 0;
#X connect 24 0 47 0;
#X connect 25 0 24 1;
#X connect 26 0 24 2;
#X connect 27 0 24 3;
#X connect 48 0 73 0;
#X connect 49 0 71 0;
#X connect 50 0 72 0;
#X connect 51 0 67 0;
#X connect 51 1 68 0;
#X connect 52 0 51 0;
#X connect 53 0 19 1;
#X connect 54 0 15 0;
#X connect 54 1 3 0;
#X connect 56 0 37 0;
#X connect 57 0 38 0;
#X connect 58 0 39 0;
#X connect 59 0 40 0;
#X connect 60 0 41 0;
#X connect 61 0 42 0;
#X connect 62 0 43 0;
#X connect 63 0 44 0;
#X connect 64 0 46 0;
#X connect 65 0 45 0;
#X connect 67 0 53 0;
#X connect 68 0 53 0;
#X coords 0 -1 1 1 110 290 2 20 20;
